# xmcd CD database file
#
# Track frame offsets:
#	150
#	17464
#	38464
#	53928
#	73447
#	89454
#	106424
#	120523
#	133744
#	151633
#	166777
#	181754
#	204184
#	220011
#	237287
#
# Disc length: 3387 seconds
#
# Revision: 0
# Processed by: cddbd v1.5.1PL0 Copyright (c) Steve Scherf et al.
# Submitted via: CDex 1.51
#
DISCID=ba0d390f
DTITLE=Patricia Kaas - Sexe fort
DYEAR=1900
DGENRE=Blues
TTITLE0=On sont les hommes
TTITLE1=Labbe caillou
TTITLE2=Je ne veux plus te pardonner
TTITLE3=La nuit est malve
TTITLE4=C'est les femmes qui menent la danse
TTITLE5=On Pourrait
TTITLE6=J en tremblerai encore
TTITLE7=Je t ame je ne t aime plus
TTITLE8=C'est la faute a la vie
TTITLE9=Je le garde pour toi
TTITLE10=Ma blessure
TTITLE11=Des regrets
TTITLE12=Tu Pourras dire
TTITLE13=Peut-ktre que peut-ktre
TTITLE14=Une question de temps
EXTD=
EXTT0=
EXTT1=
EXTT2=
EXTT3=
EXTT4=
EXTT5=
EXTT6=
EXTT7=
EXTT8=
EXTT9=
EXTT10=
EXTT11=
EXTT12=
EXTT13=
EXTT14=
PLAYORDER=
